<?xml version="1.0" encoding="UTF-8" standalone="no"?>
<!-- Created with Sodipodi ("http://www.sodipodi.com/") -->

<svg
   xmlns:dc="http://purl.org/dc/elements/1.1/"
   xmlns:cc="http://creativecommons.org/ns#"
   xmlns:rdf="http://www.w3.org/1999/02/22-rdf-syntax-ns#"
   xmlns:svg="http://www.w3.org/2000/svg"
   xmlns="http://www.w3.org/2000/svg"
   xmlns:sodipodi="http://sodipodi.sourceforge.net/DTD/sodipodi-0.dtd"
   xmlns:inkscape="http://www.inkscape.org/namespaces/inkscape"
   id="svg551"
   height="512"
   width="512"
   version="1.1"
   inkscape:version="0.91 r13725"
   sodipodi:docname="lk.svg">
  <defs
     id="defs3595" />
  <sodipodi:namedview
     pagecolor="#ffffff"
     bordercolor="#666666"
     borderopacity="1"
     objecttolerance="10"
     gridtolerance="10"
     guidetolerance="10"
     inkscape:pageopacity="0"
     inkscape:pageshadow="2"
     inkscape:window-width="1366"
     inkscape:window-height="706"
     id="namedview3593"
     showgrid="false"
     inkscape:zoom="1.0371094"
     inkscape:cx="256"
     inkscape:cy="256"
     inkscape:window-x="-8"
     inkscape:window-y="-8"
     inkscape:window-maximized="1"
     inkscape:current-layer="g602" />
  <metadata
     id="metadata3321">
    <rdf:RDF>
      <cc:Work
         rdf:about="">
        <dc:format>image/svg+xml</dc:format>
        <dc:type
           rdf:resource="http://purl.org/dc/dcmitype/StillImage" />
      </cc:Work>
    </rdf:RDF>
  </metadata>
  <g
     id="flag">
    <rect
       id="rect628"
       fill-rule="evenodd"
       height="512"
       width="512"
       y="0"
       x="0"
       stroke-width="1pt"
       fill="#fc0" />
    <rect
       id="rect626"
       height="426.63"
       width="68.885376"
       y="42.685001"
       x="110.48203"
       style="fill:#ff6600;fill-rule:evenodd;stroke-width:1pt" />
    <rect
       id="rect625"
       height="426.70001"
       width="67.875015"
       y="42.685001"
       x="42.662998"
       style="fill:#006600;fill-rule:evenodd;stroke-width:1pt" />
    <g
       id="g8183"
       transform="matrix(0.58168,0,0,0.58168,-91.852034,194.41578)">
      <rect
         id="rect627"
         height="730.0589"
         width="506.58185"
         y="-260.67789"
         x="474.74814"
         style="fill:#991b33;fill-rule:evenodd;stroke-width:1pt" />
      <g
         id="g602"
         transform="matrix(2.3701,0,0,2.3701,636.08911,-7.6422e-5)"
         style="fill:#ffcc00">
        <path
           id="path579"
           d="m 9.8188259,38.903648 4.1533811,0.106317 c 0,0 -4.6849671,3.939578 -3.620627,9.263617 4.89877,-7.240085 6.708499,-5.856793 6.708499,-5.856793 -1.490778,1.597095 -4.366015,3.833261 -2.129849,8.73203 1.917214,-5.005086 5.856793,-8.838347 5.856793,-8.838347 0,0 -1.065509,5.536672 1.276974,10.648076 1.703412,-5.111404 4.57865,-9.47625 4.57865,-9.47625 0,0 -0.425269,5.536672 2.023532,7.559036 1.916046,-1.703412 3.194189,-6.069427 3.194189,-6.069427 0,0 3.620627,6.389547 5.856793,7.34757 1.809729,-4.366015 1.809729,-7.772839 1.809729,-7.772839 0,0 7.453887,5.324038 13.415829,2.236166 -5.324038,-1.916046 -7.133768,-6.388379 -7.133768,-6.388379 0,0 9.690054,4.25853 13.842267,2.342484 -4.047064,-3.089041 -13.522147,-7.666872 -13.522147,-7.666872 0,0 7.027451,2.555468 9.049814,1.91663 C 54.220862,35.60244 51.13299,33.898678 51.13299,33.898678"
           inkscape:connector-curvature="0"
           style="fill-rule:evenodd;stroke:#991b33;stroke-width:1.16832085pt;stroke-linecap:round;stroke-linejoin:round" />
        <path
           id="selection_to_path#1"
           d="m 67.977841,-13.039899 c 12.839846,-1.168321 32.677939,9.3232006 43.192829,16.3214428 0,-2.33664178 0,-4.6616004 2.32495,-5.8299213 2.33665,-1.1683209 5.84161,1.1683209 4.67329,4.6616004 -3.50496,8.1548801 -17.51313,-1.16832088 -22.174734,-3.4932795 l 2.336642,4.6616004 C 91.320892,2.1132229 90.152571,0.94490202 85.490971,-4.8850193 84.32265,-0.22341889 84.32265,0.94490202 78.481046,0.94490202 c 2.196443,-3.45822992 2.932485,-4.61486762 0,-8.15487992 l -1.168321,6.98655901 -5.829922,-8.15487991 0,8.15487991 C 70.314482,-1.3800566 65.641199,-4.8850193 63.304557,-4.8850193 c -3.49328,-1.1683209 -5.829921,5.82992132 -6.998242,9.3348837 3.504962,-3.50496238 4.6616,-5.829921 10.503205,-3.50496238 -3.16615,2.99090148 -2.243176,6.57764638 1.168321,9.32320098 0,0 0.607526,-4.8485323 0.981389,-5.9584371 1.85763,1.3903019 5.794872,6.6126961 10.690136,7.1267571 3.504963,0 7.009926,-1.16832 10.503205,-2.3249582 11.671529,-1.1683209 37.351219,1.1566382 31.521299,18.6464012 -1.16832,3.504963 -2.33664,5.829922 -4.67328,8.166564 16.34481,5.829921 2.33664,26.812964 -1.16832,37.304486 -2.33665,9.323201 -0.71268,16.753722 10.79528,15.550351 -2.32496,4.661601 -6.122,5.432693 -10.79528,5.432693 0,0 0.58416,2.80397 3.58674,4.124172 -4.98873,4.474668 1.72912,11.180828 -1.2501,14.533908 -5.02378,2.40675 -11.67153,-1.16832 -11.67153,-1.16832 l -0.32713,3.30635 c 0,0 -8.820822,-0.60753 -9.007753,-0.98139 0,0 2.51189,-4.69665 2.324958,-4.79011 -2.336641,3.49328 -4.568134,5.53784 -9.334884,4.79011 0,0 0.373863,-2.19644 2.979219,-4.97704 -3.540013,3.52832 -3.925559,5.07051 -7.640819,4.97704 0,-5.82992 3.49328,-12.81648 10.503205,-10.49152 1.168321,0 4.848534,2.89744 6.577644,1.02812 1.40199,-2.00951 0.57248,-8.809137 0.57248,-11.145779 0.73604,-10.30459 -1.3202,-9.697063 -7.150124,-15.526984 C 91.320892,74.397237 87.907059,69.041654 82.077137,67.873333 76.235533,66.705012 66.80952,73.228916 62.136236,75.553875 50.46471,82.552117 39.961505,87.213717 27.121659,89.550359 c 0,0 0.253525,-0.595843 0.253525,-1.761828 0,-0.78628 12.602678,-10.595502 14.807299,-27.81772 -3.450051,16.9979 -15.703401,25.977615 -16.164888,29.135586 -0.460318,3.15914 -2.962862,8.548604 -3.266625,8.901437 1.515312,-0.908953 6.376696,-3.29116 12.537252,-3.795874 -1.328381,7.30084 -8.166563,5.82992 -9.334884,9.3232 0,3.50496 4.673283,8.16656 0,10.49152 l -18.6697685,0 c 0,0 2.8729015,-3.97696 3.0095945,-5.07285 -2.5130581,1.52466 -4.1078161,5.52616 -9.61177627,5.11608 0.2009512,-1.5048 2.83668317,-3.8613 2.39388957,-4.78661 -3.14862488,2.9208 -4.6265508,5.38245 -8.6432381,4.74338 1.1683209,-3.49328 1.1683209,-8.15488 5.84160453,-8.15488 3.50496277,-1.16832 7.00992577,1.16832 9.33488437,-2.33664 4.6732839,-5.829921 -0.8517059,-18.583312 -2.0083436,-25.581554 0,-5.829921 0.017525,-6.935153 -1.4849359,-14.047891 L 7.2835695,84.888759 C 2.6102855,81.383796 -2.0629981,79.058837 -5.5679608,74.397237 -13.734524,63.905715 -11.397882,52.245873 -0.89467717,45.24763 3.7786065,41.754351 6.30218,39.93177 12.143784,37.606812 10.975464,34.101849 13.8028,31.51986 9.6669442,30.433321 8.428524,32.594715 7.2134703,34.954723 4.8534617,34.756109 l 1.2617869,-5.829922 c 0,0 -4.2059556,0.257031 -3.3764478,7.781018 -4.8368485,-2.324959 -2.46515707,-7.781018 -2.46515707,-7.781018 l -2.33664183,0 c 0,0 -0.011683,6.939827 -3.8204093,8.341812 1.0281224,-3.259616 1.4837675,-8.341812 1.4837675,-8.341812 0,0 -6.2505171,7.453888 -9.8839951,5.035463 2.138027,-2.418424 3.797043,-2.815653 3.504963,-5.736455 -0.280397,-2.909119 -1.787531,-6.66235 -2.060918,-7.255623 1.322539,0.638954 10.1281738,3.267559 15.6508267,0.529366 -0.3656844,1.825501 -0.2009512,3.93397 -0.2009512,3.93397 C 8.4402072,24.264587 9.6085281,24.264587 15.450133,26.589546 14.281812,18.434666 9.6085281,17.266345 4.9469274,11.436423 l 0,4.661601 C 0.27364373,14.941386 -0.89467717,13.773065 -3.231319,9.1114648 L -6.7245984,11.436423 C -12.88165,7.8029454 -17.426418,-0.81926255 -8.6873776,-0.31688456 c 5.2107112,0.65425971 0.7944582,4.76674896 0.7944582,4.76674896 0,0 13.3655915,-4.20595493 18.6697684,-4.67328329 0,0 -1.5421836,-3.25961531 -6.4724981,-3.82040941 4.0891235,-3.0726839 8.2016131,-4.0657567 11.1457821,2.4067411 2.932485,0.1635649 5.666356,-3.3647642 3.925558,-7.9445822 4.33447,-0.070099 6.472498,2.6754549 8.44696,5.5612076 1.612283,0.2920802 3.236249,-1.4019851 2.850703,-7.1968572 4.089123,3.4932799 6.098635,4.5681351 6.367349,7.5123038 3.481596,0.7710918 5.841605,-0.011683 11.087365,-2.348325 -1.156637,4.6732836 -1.156637,5.82992131 -5.829921,8.1665631 3.294665,4.071598 3.641656,8.9852051 2.951179,10.7714511 -1.143786,-0.331453 -1.428857,-0.406576 -2.24084,-0.628323 0.253526,1.8012 0.61921,6.756633 0.457982,9.671594 l -2.336642,0 c 0,0 3.504963,10.491522 3.504963,10.491522 l -2.336642,3.504963 c 8.166563,-3.504963 16.34481,-2.336642 24.511373,-4.661601 9.334884,-1.168321 18.681451,-4.673283 29.184656,-4.673283 6.998244,0 6.998244,3.504962 16.344814,3.504962 l 0,-5.829921 c 0,-4.6616 -3.50497,-9.323201 -9.34657,-10.491522 -3.493281,0 -9.334886,2.324959 -12.839849,3.49328 -4.6616,1.168321 -11.671525,1.168321 -16.344809,1.168321 C 58.642957,16.098024 61.061381,14.625939 55.768887,11.78692 52.602737,12.628111 50.82689,15.315249 49.249656,20.058632 46.317171,15.759211 46.971431,10.268103 50.46471,7.9431439 46.971431,-4.8850193 56.306315,-10.714941 67.977841,-13.039899 Z"
           inkscape:connector-curvature="0" />
        <path
           id="selection_to_path"
           d="M 71.482803,91.887001 C 69.146162,88.382038 60.967915,82.552117 63.304557,76.722196 66.80952,70.892274 86.659292,61.569074 90.152571,74.397237 c 1.168321,3.49328 -2.432444,12.766243 -3.600765,16.271205 1.76767,-0.454477 3.732786,-3.169654 9.485598,-2.185928 -1.07135,4.579818 -8.069593,8.111652 -8.069593,8.111652 0.710339,3.098387 -4.813482,17.432514 -4.813482,17.432514 l -15.176488,0 2.336641,-4.6616 -3.504962,4.6616 -5.841605,0 4.673284,-5.82992 c 0,0 -5.527326,6.47484 -10.237996,6.21664 1.168321,-9.3232 6.733033,-10.87824 14.911279,-7.37328 1.168321,-4.6616 3.49328,-10.491519 1.168321,-15.153119 z"
           inkscape:connector-curvature="0"
           style="stroke:#991b33;stroke-width:1.16832089;stroke-linejoin:round" />
        <path
           id="path577"
           d="M 8.9776348,4.0900219 C 7.4039066,5.0580923 8.6890596,11.462594 11.106316,10.372317 14.119415,9.0136763 10.172827,3.3544471 8.9776348,4.0900219 Z"
           inkscape:connector-curvature="0"
           style="fill-rule:evenodd;stroke:#991b33;stroke-width:1.16832085pt" />
        <path
           id="path578"
           d="M 10.461402,2.0676584 C 13.33664,4.0907229 17.91529,9.5211949 23.55828,9.201776 19.298582,5.6879341 20.151456,3.1324661 20.151456,3.1324661 c 2.236166,2.661902 9.688885,5.1109363 12.137686,4.0460118 -2.87407,-2.1294986 -3.406824,-2.3424835 -4.045895,-4.3654308 3.407992,0.4259698 7.666521,1.1713586 11.073345,-0.3194189"
           inkscape:connector-curvature="0"
           style="fill-rule:evenodd;stroke:#991b33;stroke-width:1.16832085pt;stroke-linecap:round;stroke-linejoin:round" />
        <path
           id="path580"
           d="m 15.999243,37.630178 0.318952,-4.898068 c 0,0 3.194189,7.453186 5.536673,7.559503 C 20.36409,34.862192 21.003162,30.49606 21.003162,30.49606"
           inkscape:connector-curvature="0"
           style="fill-rule:evenodd;stroke:#991b33;stroke-width:1.16832085pt;stroke-linecap:round;stroke-linejoin:round" />
        <path
           id="path581"
           d="m 23.453131,31.668237 c 0,0 6.388379,11.712417 9.476251,9.79602 -4.684967,-4.153264 -4.152213,-9.583152 -4.152213,-9.583152 0,0 2.129849,7.240668 8.411911,9.476835 0.425269,-4.04648 -2.448801,-10.648077 -2.448801,-10.648077 0,0 5.216553,9.157299 7.879156,9.369934 1.703412,-2.128681 1.064341,-4.365431 1.064341,-4.365431"
           inkscape:connector-curvature="0"
           style="fill-rule:evenodd;stroke:#991b33;stroke-width:1.16832085pt;stroke-linecap:round;stroke-linejoin:round" />
        <path
           id="path582"
           d="m 18.452717,23.576446 4.684967,5.962759 0.745389,-7.985824 c 0,0 4.57865,3.62016 5.430356,3.513726 0.851705,-0.106434 -1.278144,-8.518228 -1.278144,-8.518228 0,0 6.175745,9.370167 6.602182,9.157065 0.425269,-0.212984 0.637903,-9.263616 0.637903,-9.263616 0,0 4.686135,12.884243 6.28323,12.777926 1.597095,-0.106434 1.170658,-1.81008 1.170658,-1.81008"
           inkscape:connector-curvature="0"
           style="fill-rule:evenodd;stroke:#991b33;stroke-width:1.16832085pt;stroke-linecap:round;stroke-linejoin:round" />
        <path
           id="path583"
           d="m 14.936071,13.141004 c 0,0 7.240085,6.601597 7.985474,6.175744 0.745389,-0.42597 -2.980387,-7.666522 -2.980387,-7.666522 0,0 4.152213,3.939695 5.749307,4.259114 1.597095,0.319419 0.532755,-5.110937 0.532755,-5.110937 0,0 4.897601,4.15268 5.749307,3.939695 0.851706,-0.212985 0.426437,-3.939695 0.426437,-3.939695 0,0 3.194189,3.194423 3.406824,3.194423 0.212634,0 -0.639072,-9.157182 -0.639072,-9.157182 0,0 7.134936,7.559971 7.666522,7.453537"
           inkscape:connector-curvature="0"
           style="fill-rule:evenodd;stroke:#991b33;stroke-width:1.16832085pt;stroke-linecap:round;stroke-linejoin:round" />
        <path
           id="path584"
           d="m -14.026604,15.483487 c 0.318951,0.532404 1.504797,9.948253 16.092452,6.114992 1.3844603,-0.745389 0.7757651,2.631409 0.7150124,3.620159 0.6390715,-0.106434 7.5917496,-2.585845 12.3830336,0.927997 -0.563131,-3.894598 -1.613451,-6.510468 -5.7656636,-8.746518 -2.0223635,-0.425852 -3.4991212,0.608345 -3.4991212,0.608345 0,0 -17.5832302,0.137044 -19.9257132,-2.524975 z"
           inkscape:connector-curvature="0"
           style="fill-rule:evenodd;stroke:#991b33;stroke-width:1.16832085pt;stroke-linecap:round;stroke-linejoin:round" />
        <path
           id="selection_to_path#2"
           d="m -21.982869,75.437043 c -0.241843,1.090043 -1.004756,1.404321 -3.183675,4.552946 0.968538,1.331886 5.424514,3.413834 6.634895,2.324959 1.090043,-0.606359 1.16832,-3.49328 1.16832,-3.49328 2.336642,3.49328 6.446795,9.001913 11.1200788,10.170234 3.4932794,1.168321 6.99824215,-1.168321 6.99824215,-4.661601 0,-3.493279 -5.27847385,-9.135101 -7.60343245,-11.460059 -5.8416045,-6.998243 -5.3263755,-20.215457 -16.3693435,-18.37652 -0.05725,0.100476 -0.498873,1.604105 -1.557372,1.872819 0.886755,1.69757 1.38446,3.132268 -0.738379,3.666191 1.650837,1.621629 1.910205,2.799296 -0.211466,3.613616 1.283985,1.722105 2.787614,2.354167 -0.168238,3.827419 3.092545,3.014268 3.758488,7.449214 3.91037,7.963276"
           inkscape:connector-curvature="0"
           style="stroke:#991b33;stroke-width:1.16832089;stroke-linecap:round;stroke-linejoin:round" />
        <path
           id="path585"
           d="m -24.856939,-23.366688 c -3.510804,5.085351 -3.87532,61.024906 -2.785277,72.285183 -3.510804,2.300424 -10.048728,1.331886 -11.865467,0.60519 0.848201,-3.995658 3.874152,-68.894716 14.650744,-72.890373 z"
           inkscape:connector-curvature="0"
           style="fill-rule:evenodd;stroke:#991b33;stroke-width:1.16832085pt" />
        <path
           id="path586"
           d="m -34.787666,91.291157 c 0,0 -15.498945,2.178919 -8.961022,-7.021608 5.570554,-2.42193 5.449049,3.268962 3.390468,5.206038 2.543434,0.282733 4.238668,-1.372777 4.600847,-3.875321 -3.147456,-4.2375 1.331886,-7.022777 1.090044,-7.022777 -10.775424,2.42193 -12.228815,-4.964195 -8.233158,-6.174576 5.045978,0.281566 3.431359,1.896185 5.449049,3.390468 3.63231,-3.349576 5.812397,-3.672033 7.991315,-0.241843 2.178919,-3.390467 5.327543,-3.027119 5.44788,-2.663772 3.511973,5.931566 -4.2375,6.294913 -7.384956,5.568218 2.663772,2.906782 1.573728,5.690891 0.725527,7.750641 0.08061,2.01769 1.615788,2.340147 4.117163,3.147456 -5.326375,-14.691635 18.7679068,3.913875 -5.449049,2.058582 0.04089,0.644913 0.08178,1.290994 0.121506,1.937076 1.977967,0.363348 3.349576,0.847032 3.994489,2.905614 -0.845864,1.129766 -2.17775,1.290995 -4.236332,0.484853 0,0 1.210381,3.390464 -0.968538,4.359004 -1.816739,-1.09004 -2.058581,-3.753814 -2.058581,-3.753814 -1.009429,1.251272 -2.502544,0.442794 -3.753815,-0.60519 1.130934,-2.785277 4.319282,-1.454559 4.117163,-5.449049 z"
           inkscape:connector-curvature="0"
           style="fill-rule:evenodd" />
        <path
           id="path587"
           d="m -48.106525,46.497734 c 0.927647,-4.198946 10.69481,-3.674369 6.054239,0.847032 3.106566,4.964196 12.631886,4.238669 16.224473,1.453392 -3.028288,-5.772674 5.207206,-4.521402 4.843858,-0.121506 -1.009429,7.788027 -28.171722,6.740044 -27.12257,-2.178918 z"
           inkscape:connector-curvature="0"
           style="fill-rule:evenodd" />
        <path
           id="path592"
           d="m 116.40041,172.1394 c 2.49,4.66 6.911,15.702 9.36,18.34 2.295,2.052 8.01,1.81 9.77,-0.51 0,0 3.66,3.77 5.14,4.91 0.88,-0.3 1.42,-1.14 1.42,-1.14 -1.49,-1.62 -3.52,-2.53 -4.52,-5.53 1.49,-1.99 2.31,-5.86 1.31,-8.86 -4.37,-7.32 -18.91,-4.43 -22.48,-7.21 z"
           inkscape:connector-curvature="0"
           style="stroke:#991b33" />
        <path
           id="path593"
           d="m -39.191848,-85.101705 c -2.49,-4.66 -6.911,-15.702005 -9.36,-18.340005 -2.295,-2.052 -8.01,-1.81 -9.77,0.51 0,0 -3.66,-3.77 -5.14,-4.91 -0.88,0.3 -1.42,1.14 -1.42,1.14 1.49,1.62 3.52,2.53 4.52,5.53 -1.49,1.990005 -2.31,5.860005 -1.31,8.860005 4.37,7.32 18.91,4.43 22.48,7.21 z"
           inkscape:connector-curvature="0"
           style="stroke:#991b33" />
        <path
           id="path594"
           d="m -42.770044,168.6318 c -4.66,2.49 -15.702,6.911 -18.34,9.36 -2.052,2.295 -1.81,8.01 0.51,9.77 0,0 -3.77,3.66 -4.91,5.14 0.3,0.88 1.14,1.42 1.14,1.42 1.62,-1.49 2.53,-3.52 5.53,-4.52 1.99,1.49 5.86,2.31 8.86,1.31 7.32,-4.37 4.43,-18.91 7.21,-22.48 z"
           inkscape:connector-curvature="0"
           style="stroke:#991b33" />
        <path
           id="path595"
           d="m 117.47981,-85.802103 c 2.49,-4.66 6.911,-15.701997 9.36,-18.339997 2.295,-2.052 8.01,-1.81 9.77,0.51 0,0 3.66,-3.77 5.14,-4.91 0.88,0.3 1.42,1.14 1.42,1.14 -1.49,1.62 -3.52,2.53 -4.52,5.53 1.49,1.989997 2.31,5.859997 1.31,8.859997 -4.37,7.32 -18.91,4.43 -22.48,7.21 z"
           inkscape:connector-curvature="0"
           style="stroke:#991b33" />
        <path
           id="path596"
           d="m -43.737004,56.066282 c -0.228991,1.773511 4.003835,2.545771 8.342979,2.566801 4.339144,0.0222 8.786942,-0.706834 8.986725,-1.937076 0.05725,-2.202285 -3.788865,-0.329466 -8.164227,-0.365684 -4.375362,-0.03505 -8.021691,-1.751313 -9.165477,-0.264041 z"
           inkscape:connector-curvature="0"
           style="fill-rule:evenodd;stroke:#ffcc00;stroke-width:1.16832085pt;stroke-linejoin:round" />
        <path
           id="path597"
           d="m -43.386508,60.984913 c 0.05608,1.659016 4.260866,2.058581 7.978463,2.173077 3.718766,0.114495 7.464403,-0.628557 8.150207,-1.829591 -0.658933,-1.888006 -4.790116,-0.314278 -8.151375,-0.22899 -3.360091,0.08646 -7.091708,-1.659016 -7.977295,-0.114496 z"
           inkscape:connector-curvature="0"
           style="fill-rule:evenodd;stroke:#ffcc00;stroke-width:1.16832085pt;stroke-linejoin:round" />
        <path
           id="path598"
           d="m -42.183138,65.389483 c -0.286238,1.258281 3.417339,2.159057 6.827668,2.180087 3.410328,0.02103 8.243672,-1.2945 8.271712,-2.638069 -0.199783,-1.05733 -4.975879,0.371526 -8.185257,0.479012 -3.210545,0.107485 -6.914123,-1.164816 -6.914123,-0.02103 z"
           inkscape:connector-curvature="0"
           style="fill-rule:evenodd;stroke:#ffcc00;stroke-width:1.16832085pt;stroke-linejoin:round" />
        <path
           id="path599"
           d="m -42.59205,69.910885 c 0.286239,1.229073 4.491026,1.644996 8.186425,1.365767 3.696567,-0.27806 7.456224,-1.423015 7.770502,-2.738544 -0.170575,-0.829508 -4.417421,0.643745 -7.935236,0.822498 -3.517814,0.178753 -8.078939,-0.422933 -8.021691,0.550279 z"
           inkscape:connector-curvature="0"
           style="fill-rule:evenodd;stroke:#ffcc00;stroke-width:1.16832085pt;stroke-linejoin:round" />
      </g>
    </g>
  </g>
</svg>
