<?xml version="1.0" encoding="UTF-8" standalone="no"?>
<!-- Created with Sodipodi ("http://www.sodipodi.com/") -->

<svg
   xmlns:dc="http://purl.org/dc/elements/1.1/"
   xmlns:cc="http://creativecommons.org/ns#"
   xmlns:rdf="http://www.w3.org/1999/02/22-rdf-syntax-ns#"
   xmlns:svg="http://www.w3.org/2000/svg"
   xmlns="http://www.w3.org/2000/svg"
   xmlns:sodipodi="http://sodipodi.sourceforge.net/DTD/sodipodi-0.dtd"
   xmlns:inkscape="http://www.inkscape.org/namespaces/inkscape"
   id="svg551"
   height="480"
   width="640"
   version="1.1"
   inkscape:version="0.91 r13725"
   sodipodi:docname="lk.svg">
  <defs
     id="defs3441" />
  <sodipodi:namedview
     pagecolor="#ffffff"
     bordercolor="#666666"
     borderopacity="1"
     objecttolerance="10"
     gridtolerance="10"
     guidetolerance="10"
     inkscape:pageopacity="0"
     inkscape:pageshadow="2"
     inkscape:window-width="1366"
     inkscape:window-height="706"
     id="namedview3439"
     showgrid="false"
     inkscape:zoom="1.28"
     inkscape:cx="376.75164"
     inkscape:cy="302.5"
     inkscape:window-x="-8"
     inkscape:window-y="-8"
     inkscape:window-maximized="1"
     inkscape:current-layer="flag" />
  <metadata
     id="metadata3321">
    <rdf:RDF>
      <cc:Work
         rdf:about="">
        <dc:format>image/svg+xml</dc:format>
        <dc:type
           rdf:resource="http://purl.org/dc/dcmitype/StillImage" />
      </cc:Work>
    </rdf:RDF>
  </metadata>
  <g
     id="flag">
    <rect
       id="rect628"
       fill-rule="evenodd"
       height="480"
       width="640"
       y="0"
       x="0"
       stroke-width="1pt"
       fill="#fc0" />
    <rect
       id="rect626"
       height="418.03391"
       width="67"
       y="26.50209"
       x="98.539253"
       style="fill:#ff6600;fill-rule:evenodd;stroke-width:1pt" />
    <rect
       id="rect625"
       height="418.03391"
       width="67"
       y="26.063"
       x="31.285702"
       style="fill:#006600;fill-rule:evenodd;stroke-width:1pt" />
    <g
       id="g8183"
       transform="matrix(0.77064767,0,0,0.80928746,-156.71368,26.419204)">
      <rect
         id="rect627"
         height="515"
         width="561.09241"
         y="-0.66381001"
         x="432.97037"
         style="fill:#991b33;fill-rule:evenodd;stroke-width:1pt" />
      <g
         id="g602"
         transform="matrix(2.3701,0,0,2.3701,646.02367,84.081831)"
         style="fill:#ffcc00">
        <path
           id="path579"
           d="m -0.50618849,64.179162 3.89367719,0.09964 c 0,0 -4.3920141,3.693242 -3.39423163,8.684359 C 4.5857069,66.175809 6.282275,67.472602 6.282275,67.472602 4.884717,68.96983 2.1892707,71.066173 4.2856012,75.65861 6.082935,70.966503 9.7761635,67.372931 9.7761635,67.372931 c 0,0 -0.9988779,5.19047 1.1971355,9.982247 1.596898,-4.791777 4.292344,-8.883699 4.292344,-8.883699 0,0 -0.39868,5.19047 1.896991,7.086378 1.796238,-1.596898 2.994456,-5.689915 2.994456,-5.689915 0,0 3.394231,5.990008 5.490575,6.888133 1.696568,-4.093017 1.696568,-7.2868 1.696568,-7.2868 0,0 6.98779,4.991117 12.576927,2.096331 -4.991117,-1.796239 -6.687685,-5.988913 -6.687685,-5.988913 0,0 9.084134,3.992252 12.976703,2.196014 -3.793994,-2.895881 -12.676597,-7.187464 -12.676597,-7.187464 0,0 6.588014,2.395674 8.483922,1.796783 -0.898125,-1.29767 -3.792911,-2.894897 -3.792911,-2.894897"
           inkscape:connector-curvature="0"
           style="fill-rule:evenodd;stroke:#991b33;stroke-width:1.09526548pt;stroke-linecap:round;stroke-linejoin:round" />
        <path
           id="selection_to_path#1"
           d="m 54.016141,15.483658 c 12.036964,-1.095265 30.63457,8.740218 40.491964,15.300859 0,-2.190531 0,-4.370109 2.179583,-5.465375 2.190523,-1.095266 5.476322,1.095266 4.381062,4.37011 -3.2858,7.644953 -16.418039,-1.095266 -20.788145,-3.274844 l 2.190523,4.370109 c -6.571583,-1.095265 -7.666858,-2.190531 -12.036963,-7.655906 -1.095262,4.370109 -1.095262,5.465375 -6.571597,5.465375 2.059099,-3.241985 2.749122,-4.326298 0,-7.644954 l -1.095262,6.549688 -5.46538,-7.644953 0,7.644953 c -1.095262,-1.084312 -5.476322,-4.370109 -7.666858,-4.370109 -3.274844,-1.095266 -5.465368,5.465375 -6.560629,8.751172 3.285785,-3.285797 4.370105,-5.465375 9.846427,-3.285797 -2.968166,2.803881 -2.102903,6.166345 1.095275,8.740219 0,0 0.569539,-4.545351 0.920021,-5.585854 1.741467,1.303366 5.432518,6.199202 10.021681,6.68112 3.285798,0 6.571583,-1.095266 9.846427,-2.179578 10.941702,-1.095266 35.01564,1.084312 29.55028,17.480438 -1.09528,3.285796 -2.19054,5.465374 -4.381077,7.655906 15.322777,5.46538 2.190537,25.13634 -1.095262,34.971826 -2.190523,8.740227 -0.668114,15.706107 10.120259,14.577977 -2.17959,4.37012 -5.7392,5.09299 -10.120259,5.09299 0,0 0.547631,2.62864 3.362469,3.86629 -4.676788,4.19487 1.62099,10.4817 -1.17193,13.6251 -4.709649,2.25625 -10.941704,-1.09526 -10.941704,-1.09526 l -0.306678,3.0996 c 0,0 -8.26926,-0.56953 -8.444501,-0.92003 0,0 2.354823,-4.40295 2.179582,-4.49059 -2.190536,3.27485 -4.282485,5.19157 -8.751179,4.49059 0,0 0.350495,-2.0591 2.792939,-4.66583 -3.318661,3.30771 -3.680097,4.75346 -7.163044,4.66583 0,-5.46537 3.274844,-12.01505 9.84644,-9.83547 1.095262,0 4.545347,2.71626 6.166344,0.96382 1.314319,-1.88386 0.536677,-8.25829 0.536677,-10.44883 0.690022,-9.66024 -1.237654,-9.0907 -6.703021,-14.55607 -4.38106,-3.274842 -7.581428,-8.295548 -13.046809,-9.39081 -5.476322,-1.095262 -14.31293,5.020693 -18.69399,7.200275 -10.941702,6.560645 -20.788143,10.930745 -32.825106,13.121285 0,0 0.237666,-0.55859 0.237666,-1.65167 0,-0.73711 11.814633,-9.93295 13.881401,-26.078269 -3.234314,15.935023 -14.721469,24.353229 -15.154094,27.313729 -0.43153,2.96159 -2.77759,8.01405 -3.062359,8.34483 1.420562,-0.85212 5.977958,-3.08536 11.753289,-3.55852 -1.245321,6.84432 -7.655903,5.46538 -8.751165,8.74023 0,3.28578 4.38106,7.6559 0,9.83547 l -17.5023449,0 c 0,0 2.69325522,-3.72828 2.82140616,-4.75564 -2.35591856,1.42932 -3.85095576,5.18061 -9.01075376,4.79617 0.1883858,-1.4107 2.6592971,-3.61985 2.2441989,-4.4873 -2.9517479,2.73817 -4.3372564,5.04589 -8.1027694,4.44677 1.095262,-3.27484 1.095262,-7.64495 5.4763217,-7.64495 3.2857982,-1.09526 6.5715964,1.09526 8.7511656,-2.19052 4.3810731,-5.46538 -0.7984424,-17.4213 -1.8827499,-23.98194 0,-5.465379 0.016365,-6.501502 -1.3920941,-13.169469 l 1.0952748,19.670959 c -4.3810599,-3.28578 -8.7621331,-5.46537 -12.0479181,-9.835472 -7.655917,-9.835487 -5.46538,-20.766248 4.38106,-27.326877 4.3810599,-3.274844 6.7468373,-4.983462 12.2231589,-7.163044 -1.09526171,-3.285794 1.5552721,-5.706331 -2.3219606,-6.724929 -1.1609869,2.026242 -2.3000654,4.238678 -4.5124971,4.052483 l 1.1828821,-5.465375 c 0,0 -3.9429447,0.240959 -3.1653153,7.294466 -4.534392,-2.179575 -2.3110063,-7.294466 -2.3110063,-7.294466 l -2.1905367,0 c 0,0 -0.01056,6.505883 -3.581509,7.820202 0.963825,-3.055797 1.390986,-7.820202 1.390986,-7.820202 0,0 -5.859679,6.987788 -9.265947,4.720595 2.004328,-2.2672 3.559613,-2.63959 3.285798,-5.377754 -0.262861,-2.727212 -1.675755,-6.245752 -1.932057,-6.801927 1.239844,0.599 9.494863,3.063238 14.6721881,0.496264 -0.3428269,1.711353 -0.1883859,3.687979 -0.1883859,3.687979 5.4653674,-1.095266 6.5606291,-1.095266 12.0369642,1.084313 -1.095262,-7.644954 -5.4763351,-8.74022 -9.8464408,-14.205595 l 0,4.37011 c -4.3810599,-1.084313 -5.4763216,-2.179579 -7.6668586,-6.549688 l -3.274844,2.179578 c -5.772045,-3.406276 -10.032635,-11.489336 -1.840041,-11.018371 4.884887,0.613348 0.74478,4.468683 0.74478,4.468683 0,0 12.5298366,-3.942957 17.50234418,-4.381063 0,0 -1.44575648,-3.05579 -6.06776928,-3.581518 3.8334291,-2.880548 7.6887534,-3.811524 10.4488295,2.256248 2.7491215,0.153337 5.3120346,-3.154365 3.6800966,-7.447806 4.063428,-0.06571 6.067769,2.508158 7.918765,5.213464 1.511469,0.273815 3.033891,-1.314319 2.672442,-6.746836 3.833429,3.274844 5.717288,4.282488 5.969208,7.042557 3.26389,0.722876 5.476322,-0.01095 10.394058,-2.201484 -1.084307,4.381063 -1.084307,5.465375 -5.465367,7.655907 3.088649,3.817 3.413936,8.423359 2.766635,10.09791 -1.072258,-0.310727 -1.339501,-0.381152 -2.100712,-0.589033 0.237666,1.68857 0.580493,6.334139 0.429339,9.066827 l -2.190524,0 c 0,0 3.285785,9.835484 3.285785,9.835484 L 29.9422,61.386237 c 7.655904,-3.285797 15.322762,-2.190532 22.978666,-4.37011 8.751179,-1.095266 17.513299,-4.381061 27.359739,-4.381061 6.560642,0 6.560642,3.285795 15.322762,3.285795 l 0,-5.465374 c 0,-4.370109 -3.285798,-8.740219 -8.76212,-9.835485 -3.274844,0 -8.751178,2.179579 -12.036977,3.274844 -4.370105,1.095266 -10.941702,1.095266 -15.322762,1.095266 -14.216546,-2.190531 -11.949343,-3.570567 -16.910897,-6.232061 -2.968166,0.788591 -4.63298,3.307701 -6.111586,7.75448 C 33.709917,42.481954 34.32326,37.334205 37.598104,35.154627 34.32326,23.128611 43.074439,17.663237 54.016141,15.483658 Z"
           inkscape:connector-curvature="0" />
        <path
           id="selection_to_path"
           d="m 57.301926,113.84945 c -2.190523,-3.2858 -9.857382,-8.75116 -7.666858,-14.216543 3.285798,-5.465368 21.894358,-14.205592 25.169202,-2.179569 1.095275,3.274842 -2.280334,11.967962 -3.375609,15.253752 1.657146,-0.42606 3.499379,-2.97146 8.892461,-2.04924 -1.004355,4.29345 -7.564997,7.60443 -7.564997,7.60443 0.665923,2.90464 -4.512484,16.34245 -4.512484,16.34245 l -14.2275,0 2.190523,-4.37011 -3.285798,4.37011 -5.476322,0 4.38106,-5.46537 c 0,0 -5.181706,6.06996 -9.597806,5.82791 1.095261,-8.74022 6.312008,-10.19801 13.978866,-6.91223 1.095262,-4.3701 3.274844,-9.83547 1.095262,-14.20559 z"
           inkscape:connector-curvature="0"
           style="stroke:#991b33;stroke-width:1.09526551;stroke-linejoin:round" />
        <path
           id="path577"
           d="m -1.2947721,31.542441 c -1.4753197,0.907537 -0.2705292,6.911563 1.99556494,5.889463 C 3.5254852,36.158219 -0.1743158,30.852862 -1.2947721,31.542441 Z"
           inkscape:connector-curvature="0"
           style="fill-rule:evenodd;stroke:#991b33;stroke-width:1.09526548pt" />
        <path
           id="path578"
           d="M 0.09621336,29.646537 C 2.7916594,31.543098 7.0840037,36.634002 12.374143,36.334557 8.3807963,33.040436 9.1803473,30.644761 9.1803473,30.644761 c 2.0963307,2.495453 9.0830387,4.791349 11.3787087,3.793015 -2.69435,-1.996341 -3.193796,-2.196008 -3.792898,-4.09246 3.194891,0.399333 7.18713,1.098114 10.380926,-0.299446"
           inkscape:connector-curvature="0"
           style="fill-rule:evenodd;stroke:#991b33;stroke-width:1.09526548pt;stroke-linecap:round;stroke-linejoin:round" />
        <path
           id="path580"
           d="m 5.2877656,62.985325 0.2990101,-4.591792 c 0,0 2.9944561,6.987133 5.1904693,7.086803 C 9.3796874,60.390422 9.9787898,56.297304 9.9787898,56.297304"
           inkscape:connector-curvature="0"
           style="fill-rule:evenodd;stroke:#991b33;stroke-width:1.09526548pt;stroke-linecap:round;stroke-linejoin:round" />
        <path
           id="path581"
           d="m 12.275569,57.396185 c 0,0 5.988912,10.980032 8.883698,9.183478 -4.392014,-3.893559 -3.892582,-8.983922 -3.892582,-8.983922 0,0 1.996674,6.787908 7.885916,8.884252 0.39868,-3.793453 -2.29567,-9.982255 -2.29567,-9.982255 0,0 4.890351,8.584697 7.38647,8.784023 1.596898,-1.995565 0.997782,-4.092453 0.997782,-4.092453"
           inkscape:connector-curvature="0"
           style="fill-rule:evenodd;stroke:#991b33;stroke-width:1.09526548pt;stroke-linecap:round;stroke-linejoin:round" />
        <path
           id="path582"
           d="m 7.5878309,49.810376 4.3920141,5.589906 0.698772,-7.486469 c 0,0 4.292358,3.393791 5.0908,3.294011 0.798443,-0.09978 -1.198218,-7.98558 -1.198218,-7.98558 0,0 5.789572,8.784248 6.189348,8.584472 0.398667,-0.199666 0.598007,-8.684361 0.598007,-8.684361 0,0 4.393109,12.078588 5.890337,11.97892 1.497228,-0.09978 1.097466,-1.696896 1.097466,-1.696896"
           inkscape:connector-curvature="0"
           style="fill-rule:evenodd;stroke:#991b33;stroke-width:1.09526548pt;stroke-linecap:round;stroke-linejoin:round" />
        <path
           id="path583"
           d="m 4.2910783,40.027463 c 0,0 6.7873677,6.188799 7.4861407,5.789574 0.698785,-0.399334 -2.7940209,-7.187132 -2.7940209,-7.187132 0,0 3.8925689,3.693345 5.3897969,3.99279 1.497228,0.299446 0.499445,-4.791348 0.499445,-4.791348 0,0 4.591354,3.893012 5.389797,3.693344 0.798456,-0.199667 0.399775,-3.693344 0.399775,-3.693344 0,0 2.994457,2.994675 3.193797,2.994675 0.19934,0 -0.599116,-8.584583 -0.599116,-8.584583 0,0 6.688793,7.087245 7.187143,6.987467"
           inkscape:connector-curvature="0"
           style="fill-rule:evenodd;stroke:#991b33;stroke-width:1.09526548pt;stroke-linecap:round;stroke-linejoin:round" />
        <path
           id="path584"
           d="m -22.860557,42.22347 c 0.29901,0.499113 1.410703,9.326187 15.0861905,5.732621 1.297888,-0.69878 0.7272533,2.466866 0.6703047,3.39379 0.5991024,-0.09978 7.11703643,-2.424152 11.6087206,0.869969 -0.5279265,-3.651068 -1.512564,-6.103368 -5.40513251,-8.199597 -1.89590819,-0.399223 -3.28032109,0.570305 -3.28032109,0.570305 0,0 -16.4837492,0.128481 -18.6797622,-2.367088 z"
           inkscape:connector-curvature="0"
           style="fill-rule:evenodd;stroke:#991b33;stroke-width:1.09526548pt;stroke-linecap:round;stroke-linejoin:round" />
        <path
           id="selection_to_path#2"
           d="m -30.319312,98.428116 c -0.226725,1.021882 -0.941929,1.31651 -2.984597,4.268244 0.907971,1.24861 5.085322,3.20037 6.220006,2.17958 1.021882,-0.56844 1.095275,-3.27484 1.095275,-3.27484 2.190523,3.27484 6.04367,8.43902 10.424729,9.53428 3.274845,1.09528 6.5606428,-1.09526 6.5606428,-4.3701 0,-3.27484 -4.9484088,-8.563876 -7.1279908,-10.743458 -5.476321,-6.560643 -4.993307,-18.951388 -15.345766,-17.227434 -0.05372,0.09423 -0.467678,1.503801 -1.459983,1.755708 0.831305,1.591421 1.297888,2.936412 -0.692213,3.436939 1.547617,1.520232 1.790761,2.624257 -0.198245,3.38766 1.203708,1.614424 2.613316,2.206967 -0.157714,3.588094 2.899168,2.825788 3.523478,6.983409 3.665856,7.465327"
           inkscape:connector-curvature="0"
           style="stroke:#991b33;stroke-width:1.09526551;stroke-linecap:round;stroke-linejoin:round" />
        <path
           id="path585"
           d="m -33.013663,5.8026051 c -3.291275,4.7673629 -3.632993,57.2090109 -2.611111,67.7651779 -3.291276,2.156578 -9.420388,1.248594 -11.123516,0.567348 0.795156,-3.745809 3.631898,-64.5867172 13.734627,-68.3325259 z"
           inkscape:connector-curvature="0"
           style="fill-rule:evenodd;stroke:#991b33;stroke-width:1.09526548pt" />
        <path
           id="path586"
           d="m -42.323426,113.29087 c 0,0 -14.529784,2.04266 -8.400684,-6.58254 5.222223,-2.27049 5.108313,3.06455 3.17846,4.88049 2.384399,0.26507 3.97363,-1.28693 4.313157,-3.63299 -2.950639,-3.97252 1.248607,-6.58363 1.021882,-6.58363 -10.101634,2.27047 -11.464139,-4.653797 -7.71833,-5.78848 4.730446,0.263956 3.216787,1.777616 5.108313,3.17846 3.405186,-3.140134 5.44895,-3.44243 7.491618,-0.226726 2.042668,-3.17846 4.994416,-2.837837 5.107217,-2.497201 3.292371,5.560657 -3.972521,5.901287 -6.923173,5.220037 2.497214,2.72502 1.475333,5.33503 0.680163,7.26598 0.07562,1.89153 1.514755,2.19382 3.85972,2.95065 -4.993321,-13.772962 17.594346,3.66913 -5.108327,1.92986 0.03827,0.60459 0.07668,1.21026 0.113897,1.81595 1.854283,0.34062 3.140134,0.79406 3.744714,2.72393 -0.792966,1.05911 -2.041573,1.21027 -3.971426,0.45453 0,0 1.134684,3.17846 -0.907984,4.08643 -1.703128,-1.02188 -1.929853,-3.51908 -1.929853,-3.51908 -0.946311,1.17302 -2.34606,0.4151 -3.519084,-0.56735 1.060209,-2.61111 4.049188,-1.36361 3.859706,-5.10832 z"
           inkscape:connector-curvature="0"
           style="fill-rule:evenodd" />
        <path
           id="path587"
           d="m -54.809446,71.298389 c 0.869631,-3.936385 10.026063,-3.444608 5.675661,0.794074 2.912313,4.65378 11.842019,3.973616 15.20996,1.362505 -2.838932,-5.411705 4.881588,-4.238682 4.540965,-0.113898 -0.946311,7.301041 -26.410142,6.318594 -25.426586,-2.042668 z"
           inkscape:connector-curvature="0"
           style="fill-rule:evenodd" />
        <path
           id="path592"
           d="m 117.72717,157.13543 c 2.49,4.66 6.911,15.702 9.36,18.34 2.295,2.052 8.01,1.81 9.77,-0.51 0,0 3.66,3.77 5.14,4.91 0.88,-0.3 1.42,-1.14 1.42,-1.14 -1.49,-1.62 -3.52,-2.53 -4.52,-5.53 1.49,-1.99 2.31,-5.86 1.31,-8.86 -4.37,-7.32 -18.91,-4.43 -22.48,-7.21 z"
           inkscape:connector-curvature="0"
           style="stroke:#991b33" />
        <path
           id="path593"
           d="m -62.579444,-12.100409 c -2.49,-4.66 -6.911,-15.702 -9.36,-18.34 -2.295,-2.052 -8.01,-1.81 -9.77,0.51 0,0 -3.66,-3.77 -5.14,-4.91 -0.88,0.3 -1.42,1.14 -1.42,1.14 1.49,1.62 3.52,2.53 4.52,5.53 -1.49,1.99 -2.31,5.86 -1.31,8.86 4.37,7.32 18.91,4.43 22.48,7.21 z"
           inkscape:connector-curvature="0"
           style="stroke:#991b33" />
        <path
           id="path594"
           d="m -65.342627,154.61699 c -4.66,2.49 -15.702,6.911 -18.34,9.36 -2.052,2.295 -1.81,8.01 0.51,9.77 0,0 -3.77,3.66 -4.91,5.14 0.3,0.88 1.14,1.42 1.14,1.42 1.62,-1.49 2.53,-3.52 5.53,-4.52 1.99,1.49 5.86,2.31 8.86,1.31 7.32,-4.37 4.43,-18.91 7.21,-22.48 z"
           inkscape:connector-curvature="0"
           style="stroke:#991b33" />
        <path
           id="path595"
           d="m 119.69828,-10.700278 c 2.49,-4.66 6.911,-15.702 9.36,-18.34 2.295,-2.052 8.01,-1.81 9.77,0.51 0,0 3.66,-3.77 5.14,-4.91 0.88,0.3 1.42,1.14 1.42,1.14 -1.49,1.62 -3.52,2.53 -4.52,5.53 1.49,1.99 2.31,5.86 1.31,8.86 -4.37,7.32 -18.91,4.43 -22.48,7.21 z"
           inkscape:connector-curvature="0"
           style="stroke:#991b33" />
        <path
           id="path596"
           d="m -50.713156,80.268612 c -0.214676,1.66261 3.753476,2.386591 7.821286,2.406295 4.067822,0.02085 8.237493,-0.662624 8.424783,-1.815943 0.05371,-2.064576 -3.551946,-0.308868 -7.653713,-0.342813 -4.101767,-0.03286 -7.520085,-1.64181 -8.592356,-0.247539 z"
           inkscape:connector-curvature="0"
           style="fill-rule:evenodd;stroke:#ffcc00;stroke-width:1.09526548pt;stroke-linejoin:round" />
        <path
           id="path597"
           d="m -50.384583,84.879684 c 0.05253,1.555272 3.994443,1.929853 7.479581,2.037191 3.48622,0.107298 6.997649,-0.589257 7.640568,-1.71519 -0.617738,-1.769948 -4.490589,-0.294615 -7.641663,-0.214663 -3.149993,0.08103 -6.648263,-1.555285 -7.478486,-0.107298 z"
           inkscape:connector-curvature="0"
           style="fill-rule:evenodd;stroke:#ffcc00;stroke-width:1.09526548pt;stroke-linejoin:round" />
        <path
           id="path598"
           d="m -49.256459,89.008837 c -0.268338,1.179596 3.203655,2.024046 6.400738,2.043763 3.197082,0.01967 7.728188,-1.213553 7.754478,-2.473115 -0.18729,-0.99121 -4.664734,0.348304 -7.67343,0.449069 -3.009792,0.1007 -6.481786,-1.091988 -6.481786,-0.01966 z"
           inkscape:connector-curvature="0"
           style="fill-rule:evenodd;stroke:#ffcc00;stroke-width:1.09526548pt;stroke-linejoin:round" />
        <path
           id="path599"
           d="m -49.63979,93.247505 c 0.268339,1.152224 4.210201,1.542141 7.674513,1.280375 3.465421,-0.260671 6.989994,-1.334037 7.284623,-2.567308 -0.159918,-0.77763 -4.141203,0.603497 -7.439051,0.77107 -3.297847,0.167573 -7.57376,-0.39649 -7.520085,0.515863 z"
           inkscape:connector-curvature="0"
           style="fill-rule:evenodd;stroke:#ffcc00;stroke-width:1.09526548pt;stroke-linejoin:round" />
      </g>
    </g>
  </g>
</svg>
